<?xml version="1.0" standalone="no"?>
<!DOCTYPE svg PUBLIC "-//W3C//DTD SVG 20010904//EN"
 "http://www.w3.org/TR/2001/REC-SVG-20010904/DTD/svg10.dtd">
<svg version="1.0" xmlns="http://www.w3.org/2000/svg"
 width="1000.000000pt" height="1000.000000pt" viewBox="0 0 1000.000000 1000.000000"
 preserveAspectRatio="xMidYMid meet">
<metadata>
Created by potrace 1.14, written by Peter Selinger 2001-2017
</metadata>
<g transform="translate(0.000000,1000.000000) scale(0.100000,-0.100000)"
fill="#000000" stroke="none">
<path d="M564 7166 c-32 -14 -44 -33 -44 -67 0 -18 8 -19 115 -19 l115 0 0
-180 0 -180 55 0 c91 0 95 8 95 200 l0 160 89 0 c103 0 141 19 141 71 l0 29
-267 0 c-202 -1 -276 -4 -299 -14z"/>
<path d="M6225 7169 c-76 -23 -85 -47 -85 -228 l0 -151 29 -32 29 -33 246 0
246 0 26 26 c23 23 27 37 31 112 3 47 3 97 -1 111 l-6 26 -195 0 c-209 0 -211
-1 -185 -51 19 -34 64 -49 150 -49 l80 0 0 -45 0 -46 -147 3 -148 3 0 130 0
130 223 3 c237 3 238 3 212 51 -21 41 -79 51 -283 50 -105 0 -205 -5 -222 -10z"/>
<path d="M8468 7173 l-58 -4 0 -39 0 -40 150 0 150 0 0 39 0 38 -61 7 c-34 3
-76 5 -93 4 -17 -1 -57 -3 -88 -5z"/>
<path d="M1205 7035 c-24 -23 -25 -30 -25 -145 0 -115 1 -122 25 -145 24 -25
26 -25 205 -25 167 0 181 1 200 20 11 11 20 27 20 35 0 13 -25 15 -165 15
l-165 0 0 30 0 30 105 0 105 0 0 40 0 40 -105 0 -105 0 0 30 0 30 165 0 c167
0 179 3 157 36 -19 28 -56 34 -222 34 -168 0 -171 0 -195 -25z"/>
<path d="M1724 7048 c-34 -16 -44 -52 -44 -159 0 -167 2 -168 233 -169 176 0
178 0 202 25 19 18 25 35 25 70 l0 46 -57 -3 c-57 -3 -58 -3 -61 -35 l-3 -33
-110 0 -109 0 0 100 0 100 109 0 110 0 3 -32 c4 -42 31 -47 78 -16 44 30 49
60 16 93 -25 25 -26 25 -198 24 -97 0 -182 -5 -194 -11z"/>
<path d="M2190 6891 l0 -171 55 0 55 0 0 90 c0 50 3 90 6 90 4 0 45 -36 92
-81 90 -86 113 -99 168 -99 l34 0 0 170 0 170 -35 0 c-25 0 -44 -8 -60 -25
-22 -21 -25 -33 -25 -91 l0 -66 -95 88 c-89 81 -99 87 -145 92 l-50 5 0 -172z"/>
<path d="M2676 7039 c-26 -20 -26 -22 -26 -149 0 -175 -7 -170 222 -170 164 0
201 6 220 34 4 6 8 67 8 136 0 69 -4 130 -8 136 -19 28 -56 34 -220 34 -156 0
-171 -2 -196 -21z m312 -151 l3 -98 -116 0 -115 0 0 93 c0 52 3 97 7 101 4 3
54 5 112 4 l106 -3 3 -97z"/>
<path d="M3150 6915 c0 -142 1 -147 25 -170 23 -24 30 -25 148 -25 111 0 127
2 151 21 52 41 37 49 -89 49 l-115 0 0 110 c0 104 -1 112 -25 135 -16 17 -35
25 -60 25 l-35 0 0 -145z"/>
<path d="M3575 7035 c-24 -23 -25 -30 -25 -145 0 -115 1 -122 25 -145 24 -25
26 -25 202 -25 236 0 223 -10 223 163 0 73 -4 137 -8 143 -19 28 -56 34 -222
34 -168 0 -171 0 -195 -25z m315 -145 l0 -100 -110 0 -110 0 0 100 0 100 110
0 110 0 0 -100z"/>
<path d="M4086 7039 c-26 -20 -26 -22 -26 -149 0 -176 -8 -170 227 -170 171 0
174 0 198 25 22 22 25 32 25 105 l0 80 -144 0 c-95 0 -147 -4 -152 -11 -3 -6
5 -23 20 -37 21 -21 37 -27 91 -30 64 -4 65 -5 65 -33 l0 -29 -110 0 -110 0 0
100 0 100 170 0 c112 0 170 4 170 10 0 6 -11 22 -25 35 -24 25 -27 25 -198 25
-161 0 -176 -2 -201 -21z"/>
<path d="M4560 6911 l0 -150 26 -20 c15 -12 40 -21 55 -21 l29 0 0 170 0 170
-55 0 -55 0 0 -149z"/>
<path d="M4763 7048 c-34 -16 -43 -60 -43 -199 l0 -129 35 0 c51 0 85 36 85
90 l0 40 110 0 110 0 0 -65 0 -65 60 0 60 0 0 170 0 170 -197 -1 c-118 0 -207
-5 -220 -11z m297 -88 l0 -30 -110 0 -110 0 0 30 0 30 110 0 110 0 0 -30z"/>
<path d="M5459 7031 c-28 -29 -29 -32 -29 -135 0 -115 9 -148 47 -165 14 -7
91 -11 194 -11 167 0 170 0 194 25 14 13 25 29 25 35 0 6 -58 10 -170 10
l-170 0 0 30 0 30 105 0 105 0 0 40 0 40 -105 0 -105 0 0 30 0 30 170 0 c112
0 170 4 170 10 0 6 -11 22 -25 35 -24 25 -27 25 -200 25 l-177 0 -29 -29z"/>
<path d="M6823 7036 c-28 -24 -28 -25 -28 -146 0 -121 0 -122 28 -146 27 -23
33 -24 201 -24 160 0 175 2 200 21 14 11 26 27 26 35 0 12 -29 14 -170 14
l-170 0 0 30 0 30 105 0 105 0 0 40 0 40 -105 0 -105 0 0 30 0 30 170 0 c112
0 170 4 170 10 0 6 -11 22 -25 35 -24 25 -27 25 -199 25 -170 0 -176 -1 -203
-24z"/>
<path d="M7325 7035 c-20 -19 -25 -34 -25 -74 0 -100 19 -111 205 -111 l135 0
0 -30 0 -30 -171 0 c-153 0 -170 -2 -167 -16 2 -9 16 -26 31 -38 26 -19 41
-21 196 -21 198 0 215 6 226 79 17 110 -23 136 -207 136 l-128 0 0 30 0 30
165 0 c157 0 165 1 165 19 0 44 -33 51 -223 51 -176 0 -178 0 -202 -25z"/>
<path d="M7828 7049 c-10 -5 -18 -21 -18 -34 0 -25 1 -25 85 -25 l85 0 0 -135
0 -135 38 0 c66 0 71 10 74 145 l3 120 70 5 c81 6 95 12 95 46 l0 24 -207 0
c-123 0 -215 -5 -225 -11z"/>
<path d="M8354 7048 c-36 -17 -44 -52 -44 -193 l0 -135 35 0 c51 0 85 36 85
90 l0 40 110 0 110 0 0 -65 0 -65 60 0 60 0 0 170 0 170 -197 -1 c-115 0 -207
-5 -219 -11z m219 -64 c72 -7 77 -8 77 -30 0 -24 -1 -24 -110 -24 -109 0 -110
0 -110 23 0 41 6 42 143 31z"/>
<path d="M8845 7036 c-24 -24 -25 -30 -25 -146 0 -115 1 -122 25 -145 24 -25
26 -25 205 -25 232 0 220 -9 220 168 0 95 -4 133 -14 148 -13 17 -30 19 -200
22 l-186 3 -25 -25z m315 -146 l0 -100 -110 0 -110 0 0 100 0 100 110 0 110 0
0 -100z"/>
<path d="M3800 6323 c-499 -7 -1772 -35 -1955 -43 -214 -10 -499 -21 -1020
-41 -159 -6 -296 -13 -304 -15 -29 -9 7 -22 99 -33 52 -7 138 -19 190 -27 96
-14 465 -65 1065 -148 334 -47 481 -68 613 -88 78 -12 87 -17 646 -400 l129
-88 -246 0 -247 0 0 -415 0 -415 401 -2 401 -3 -48 -35 c-54 -38 -609 -443
-883 -644 -95 -70 -183 -133 -195 -141 -11 -8 -82 -23 -156 -35 -74 -11 -175
-27 -225 -35 -49 -8 -153 -23 -230 -35 -284 -42 -472 -71 -530 -80 -33 -6
-226 -35 -430 -66 -203 -30 -372 -57 -374 -60 -17 -16 31 -18 1244 -44 264 -5
860 -10 1323 -10 l844 0 558 400 c308 220 566 403 574 406 13 5 179 -104 928
-613 l196 -133 689 -10 c378 -5 1075 -14 1548 -19 473 -6 950 -13 1060 -16
126 -4 196 -3 190 3 -5 5 -143 42 -305 82 -263 64 -1402 345 -1635 402 -90 23
-91 24 -590 355 l-500 333 343 0 342 0 0 415 0 415 -282 2 -283 3 195 141
c107 78 256 184 330 237 154 109 94 92 525 147 132 17 292 37 355 46 63 8 311
39 550 70 239 30 539 68 667 84 128 17 237 30 242 30 6 0 11 4 11 9 0 5 -63
10 -142 10 -79 1 -357 8 -618 16 -261 8 -628 19 -815 25 -187 6 -473 15 -635
20 -162 6 -493 17 -735 25 -242 8 -508 17 -591 20 l-151 6 -249 -182 c-137
-100 -311 -227 -387 -283 -76 -56 -168 -123 -206 -149 l-68 -48 -488 321
c-268 177 -493 323 -499 325 -28 8 -73 10 -236 8z m2667 -1475 c-1 -73 -3 -14
-3 132 0 146 2 205 3 133 2 -73 2 -193 0 -265z m-2837 77 c0 -172 -4 -276 -10
-280 -7 -4 -10 92 -10 280 0 188 3 284 10 280 6 -4 10 -108 10 -280z m-290
100 l0 -155 -150 0 -150 0 0 155 0 155 150 0 150 0 0 -155z m3700 0 l0 -155
-150 0 -150 0 0 155 0 155 150 0 150 0 0 -155z m-850 -56 l0 -71 -22 14 c-13
8 -36 23 -51 33 -15 10 -26 21 -25 26 4 10 80 68 91 69 4 0 7 -32 7 -71z
m-2180 -38 c-1 -13 -80 -61 -99 -61 -19 0 -21 6 -21 75 l0 76 60 -43 c33 -23
60 -44 60 -47z"/>
<path d="M7325 5688 c-3 -7 -4 -251 -3 -543 l3 -530 137 -3 138 -3 2 182 3
182 185 -243 c317 -416 355 -463 368 -468 9 -3 12 119 12 587 l0 592 -137 -3
-138 -3 -5 -183 -5 -183 -269 315 c-148 174 -273 316 -278 316 -5 0 -11 -6
-13 -12z"/>
<path d="M1910 5170 l0 -270 285 0 c247 0 285 -2 285 -15 0 -13 -38 -15 -285
-15 l-286 0 -227 -121 c-125 -66 -231 -125 -237 -130 -5 -6 249 -8 650 -7
l660 3 0 270 c0 209 -3 270 -12 271 -7 1 -134 2 -283 3 -170 1 -270 5 -270 11
0 6 106 11 283 12 l282 3 0 125 0 125 -422 3 -423 2 0 -270z"/>
<path d="M449 3231 c-26 -27 -29 -36 -29 -95 0 -54 4 -69 24 -93 l24 -28 181
-3 181 -3 0 -40 0 -39 -205 0 c-225 0 -235 -3 -175 -54 42 -35 68 -38 277 -34
166 3 184 5 210 24 27 20 28 25 28 104 0 79 -1 84 -28 104 -26 19 -44 21 -203
24 l-174 3 0 35 0 34 205 0 c216 0 216 0 199 45 -15 39 -54 45 -274 45 l-212
0 -29 -29z"/>
<path d="M5957 3243 c-8 -10 -17 -29 -19 -43 l-3 -25 102 -3 103 -3 2 -162 3
-162 47 1 c82 1 88 13 88 180 l0 142 84 3 c92 4 126 22 126 66 l0 23 -258 0
c-234 0 -260 -2 -275 -17z"/>
<path d="M1046 3139 c-25 -20 -26 -23 -26 -135 0 -165 4 -168 228 -162 121 3
143 6 161 22 45 41 31 46 -127 46 -82 0 -151 3 -154 6 -3 3 -4 14 -1 24 5 17
16 20 97 22 l91 3 3 38 3 37 -95 0 c-96 0 -96 0 -96 25 l0 25 150 0 c151 0
164 3 142 36 -18 28 -56 34 -200 34 -136 0 -152 -2 -176 -21z"/>
<path d="M1530 3153 c-45 -17 -50 -31 -50 -155 l0 -118 33 -20 c29 -19 46 -20
183 -18 192 4 194 5 194 120 l0 79 -132 -3 c-106 -2 -133 -6 -133 -17 0 -25
50 -52 108 -58 52 -5 57 -8 57 -29 0 -24 -2 -24 -100 -24 l-100 0 0 90 0 90
150 0 c151 0 164 3 142 36 -18 28 -55 34 -194 33 -79 0 -150 -3 -158 -6z"/>
<path d="M1940 3020 l0 -140 33 -21 c29 -18 46 -19 169 -17 129 3 138 4 162
27 25 24 26 27 26 158 l0 134 -52 -3 -53 -3 -3 -122 -3 -123 -89 0 -90 0 0
109 c0 102 -2 111 -22 125 -12 9 -35 16 -50 16 l-28 0 0 -140z"/>
<path d="M2374 3147 c-2 -7 -3 -78 -2 -157 l3 -145 35 3 c58 4 70 28 70 143
l0 99 100 0 100 0 0 -25 c0 -24 -2 -25 -75 -25 -41 0 -75 -3 -75 -7 0 -3 32
-48 71 -100 l72 -93 58 0 c33 0 59 3 59 8 0 4 -18 30 -40 57 -22 28 -40 53
-40 56 0 4 14 9 30 13 54 10 71 116 25 161 -24 25 -26 25 -205 25 -139 0 -182
-3 -186 -13z"/>
<path d="M2885 3148 c-41 -22 -45 -37 -45 -170 0 -144 3 -150 63 -124 36 14
43 27 49 86 3 25 4 25 100 25 l97 0 3 -60 3 -60 50 0 50 0 3 158 3 157 -178 0
c-109 0 -186 -5 -198 -12z m265 -83 l0 -25 -100 0 -100 0 0 25 0 25 100 0 100
0 0 -25z"/>
<path d="M3304 3147 c-2 -7 -3 -78 -2 -157 l3 -145 53 -3 52 -3 0 85 c0 48 3
86 8 86 4 0 41 -33 81 -74 55 -55 85 -77 117 -86 23 -7 47 -9 53 -5 7 4 11 61
11 161 l0 154 -30 0 c-19 0 -40 -9 -55 -25 -21 -20 -25 -34 -25 -87 l0 -63
-77 77 c-43 42 -91 82 -106 87 -39 15 -77 14 -83 -2z"/>
<path d="M3765 3148 c-40 -21 -45 -39 -45 -144 0 -94 2 -105 24 -130 20 -24
32 -28 89 -32 62 -4 66 -6 69 -31 2 -20 10 -27 33 -31 24 -4 30 -10 30 -30 0
-20 -6 -26 -27 -28 -22 -3 -30 2 -38 22 -14 37 -50 36 -50 -2 0 -42 17 -52 85
-52 71 0 85 10 85 61 0 41 -21 69 -51 69 -10 0 -19 5 -19 10 0 6 24 10 54 10
100 0 136 25 136 94 0 32 -3 36 -25 36 -35 0 -74 -20 -80 -42 -6 -16 -18 -18
-106 -18 l-99 0 0 90 0 90 100 0 100 0 0 -30 c0 -34 13 -37 64 -16 57 24 56
85 0 106 -35 14 -304 12 -329 -2z"/>
<path d="M4221 3146 c-14 -8 -28 -22 -32 -32 -12 -30 -10 -262 1 -269 16 -10
79 15 90 35 6 10 10 35 10 54 l0 36 100 0 100 0 0 -66 0 -65 53 3 52 3 3 158
3 157 -178 0 c-131 -1 -185 -4 -202 -14z m269 -81 l0 -25 -100 0 -100 0 0 25
0 25 100 0 100 0 0 -25z"/>
<path d="M4830 2999 l0 -160 184 3 c236 4 226 -3 226 157 0 64 -4 121 -8 127
-19 28 -56 34 -226 34 l-176 0 0 -161z m310 1 l0 -90 -100 0 -100 0 0 90 0 90
100 0 100 0 0 -90z"/>
<path d="M5316 3139 c-25 -20 -26 -23 -26 -135 0 -164 7 -168 237 -162 176 4
173 2 173 157 0 64 -4 121 -8 127 -18 28 -56 34 -200 34 -136 0 -152 -2 -176
-21z m284 -139 l0 -90 -100 0 -100 0 0 90 0 90 100 0 100 0 0 -90z"/>
<path d="M6540 2999 l0 -161 33 7 c61 13 67 27 67 142 l0 103 105 0 105 0 0
-25 c0 -24 -2 -25 -76 -25 -61 0 -75 -3 -72 -15 2 -8 32 -53 68 -100 l65 -84
58 -1 c35 0 57 4 57 11 0 6 -18 33 -40 59 -46 55 -48 60 -20 60 38 0 60 35 60
94 0 47 -4 57 -26 75 -25 19 -40 21 -205 21 l-179 0 0 -161z"/>
<path d="M7036 3139 c-26 -20 -26 -21 -26 -161 l0 -140 28 7 c53 13 72 32 72
74 l0 38 68 6 c37 4 81 7 99 7 l32 0 3 -62 3 -63 53 -3 52 -3 0 160 0 161
-179 0 c-165 0 -180 -2 -205 -21z m284 -74 l0 -25 -105 0 -105 0 0 25 0 25
105 0 105 0 0 -25z"/>
<path d="M7470 3000 l0 -160 164 0 c223 0 246 10 246 105 0 36 -5 51 -24 68
l-24 21 24 19 c24 18 31 51 16 73 -19 28 -56 34 -226 34 l-176 0 0 -160z m300
65 l0 -25 -100 0 -100 0 0 25 0 25 100 0 100 0 0 -25z m0 -130 l0 -25 -100 0
-100 0 0 25 0 25 100 0 100 0 0 -25z"/>
<path d="M7956 3139 c-26 -20 -26 -21 -26 -160 0 -155 2 -159 68 -119 27 17
32 25 32 60 l0 40 105 0 105 0 0 -60 0 -60 50 0 50 0 0 160 0 160 -179 0
c-165 0 -180 -2 -205 -21z m284 -74 l0 -25 -105 0 -105 0 0 25 0 25 105 0 105
0 0 -25z"/>
<path d="M8390 3020 l0 -140 33 -20 c25 -16 50 -20 118 -20 101 0 142 12 157
45 l11 24 -107 3 -107 3 -3 107 -3 108 -29 15 c-16 8 -38 15 -50 15 -19 0 -20
-6 -20 -140z"/>
<path d="M8795 3149 c-41 -23 -45 -38 -45 -176 l0 -134 53 3 52 3 3 58 3 57
99 0 100 0 0 -61 0 -60 53 3 52 3 0 155 0 155 -52 3 -53 3 0 -60 0 -61 -100 0
-99 0 -3 58 c-3 48 -6 57 -23 59 -11 2 -29 -2 -40 -8z"/>
<path d="M9235 3135 c-23 -22 -25 -31 -25 -129 0 -121 3 -132 41 -151 34 -18
279 -21 327 -4 44 15 55 50 50 169 -4 142 -1 140 -210 140 -155 0 -159 -1
-183 -25z m285 -135 l0 -90 -100 0 -100 0 0 90 0 90 100 0 100 0 0 -90z"/>
</g>
</svg>
